<svg width="24" height="24" viewBox="0 0 24 24" fill="none" xmlns="http://www.w3.org/2000/svg">
<mask id="path-1-inside-1_1_3" fill="white">
<path d="M2.05397 10.2277C1.93796 9.89885 1.77885 9.57906 1.63769 9.25871L0.826147 7.41491C0.355108 6.32531 0.483352 6.71099 0.587756 5.45219L0.876591 1.9171C0.927902 1.2844 1.02393 0.634498 1.00691 0C1.41817 0.143796 3.02686 1.38933 3.42598 1.67876L7.12864 4.36912C7.43214 4.59395 8.3283 5.30371 8.59924 5.42612H15.4692C15.7979 5.10004 16.228 4.82917 16.6108 4.55748L22.2544 0.485176C22.4921 0.315625 22.7249 0.136882 22.9869 0C22.9847 0.286017 23.0151 0.57026 23.0359 0.855293C23.1481 2.39302 23.302 3.92817 23.3995 5.46669C23.4801 6.73713 23.5829 6.4067 23.1099 7.56861C22.7478 8.45822 22.3702 9.34378 21.9923 10.2277C22.1944 10.7303 22.4488 11.217 22.6842 11.7067L23.4375 13.3107C23.6303 13.7117 23.8371 14.1098 24 14.5222C23.807 14.7108 23.6395 14.9225 23.4647 15.1256C22.8258 15.868 22.1726 16.6117 21.565 17.3756L20.9029 18.1634C20.7363 18.3622 20.568 18.6011 20.3579 18.7616C20.1858 18.893 18.0536 19.6232 17.7191 19.7457C16.6567 20.135 16.8314 19.9518 16.0792 20.7228C15.3828 21.4367 14.8919 22.095 14.0434 22.6458L12.5034 23.6722C12.3374 23.7851 12.171 23.9143 11.9867 24C11.4593 23.6878 10.9606 23.3188 10.4533 22.9791C9.70273 22.4764 9.53165 22.3905 8.92957 21.762L7.87026 20.6535C7.23947 19.9901 7.39145 20.1077 6.48245 19.7951C5.62475 19.5001 4.57365 19.153 3.74521 18.8113C3.45591 18.6921 0.967491 15.6484 0.584602 15.2131C0.389473 14.9912 0.218048 14.7448 0.0110761 14.5334L0 14.5222C0.107276 14.2352 0.25566 13.9569 0.388249 13.6792L1.68349 10.9516C1.80171 10.7094 1.91315 10.4594 2.05397 10.2277ZM22.1155 2.46502C21.8468 2.87292 21.6407 3.3176 21.4102 3.7446L19.606 7.04721C19.4534 7.32617 19.27 7.61043 19.1623 7.90688L19.9008 8.42891C20.0129 8.50906 20.123 8.60028 20.2394 8.67421C20.5684 8.91621 20.9102 9.14727 21.2336 9.39474C21.3909 9.04919 22.4566 6.72344 22.442 6.43302C22.4248 6.0917 22.3843 5.7492 22.3567 5.40832L22.2334 3.76035C22.2123 3.48275 22.2173 2.67242 22.1155 2.46502ZM1.86742 2.62065C1.85491 2.92562 1.82397 3.23029 1.80245 3.53483L1.65444 5.61249C1.59808 6.43731 1.48054 6.35349 1.81227 7.10894L2.58147 8.84534C2.6541 9.00856 2.72148 9.18336 2.81159 9.33886C3.12417 9.12262 3.42134 8.87272 3.74629 8.67421C4.08159 8.409 4.43525 8.15778 4.7834 7.90688C4.56773 7.34895 4.21299 6.80639 3.92752 6.27428L2.74717 4.11971C2.58591 3.82643 2.09882 2.78306 1.86742 2.62065ZM3.19081 2.79694C3.7516 3.86184 4.34628 4.91349 4.93236 5.96669C5.18367 6.41827 5.39221 6.88815 5.67337 7.32586C5.90632 7.08903 6.40968 6.71927 6.70248 6.54348C6.97027 6.3258 7.25453 6.10147 7.54928 5.91597C7.26475 5.63669 3.37756 2.86253 3.19081 2.79694ZM20.739 2.79694C19.275 3.79258 17.8854 4.88934 16.4461 5.91597C16.7125 6.13364 16.9968 6.35287 17.2864 6.54348C17.5991 6.80489 17.978 7.10751 18.3359 7.30975L18.3641 7.32586C18.6162 6.72425 20.7449 2.94012 20.739 2.79694ZM9.15956 6.38803C9.65646 6.96538 10.5238 7.65984 11.1179 8.16307C11.4231 8.42163 11.7256 8.71248 12.0573 8.94067C12.412 8.54951 13.1243 7.93936 13.5661 7.60246C13.9354 7.22873 14.5276 6.71759 14.9453 6.38803C14.3823 6.37876 13.818 6.38816 13.2549 6.38828L9.15956 6.38803ZM8.46293 6.47907C8.08015 6.71964 7.39616 7.23806 7.05534 7.53694C7.94834 7.84235 8.87806 8.05243 9.7802 8.33364C10.1359 8.43264 10.4907 8.53775 10.8521 8.6179C10.586 8.37266 8.54181 6.51043 8.46293 6.47907ZM15.5623 6.47907C15.3493 6.70925 15.0995 6.91385 14.8632 7.1235L13.9899 7.91391C13.7161 8.16152 13.4367 8.4034 13.1891 8.67421C13.5144 8.60638 13.827 8.50302 14.1417 8.40215C14.7703 8.19593 16.3111 7.61311 16.8857 7.53694C16.5787 7.19151 15.9512 6.77179 15.5623 6.47907ZM17.2864 7.98523C16.9925 8.02188 16.7103 8.13127 16.4311 8.22082L15.2268 8.61503C14.5537 8.83781 13.8726 9.03302 13.1891 9.22629C13.8013 9.33295 14.4341 9.34639 15.0453 9.45125C16.182 9.53917 17.5226 9.71217 18.6304 9.90414C18.4401 9.60339 17.5481 8.20296 17.3014 7.9861L17.2864 7.98523ZM6.70248 7.98523C6.34849 8.37284 5.60424 9.4472 5.34607 9.90414C5.64721 9.8543 8.91585 9.43096 9.02789 9.45125C9.46675 9.34583 10.3943 9.23196 10.8521 9.22629C10.3848 9.00682 9.85169 8.90028 9.35256 8.75498L6.70248 7.98523ZM5.67337 8.50203C5.2452 8.75953 4.07554 9.61702 3.6904 9.9538L3.68778 9.97632C4.00587 9.97595 4.32543 9.97222 4.64332 9.97632C4.74399 9.77159 5.67768 8.55573 5.67337 8.50203ZM18.311 8.50203C18.6247 8.99761 18.9834 9.47508 19.2822 9.97632C19.6393 9.93444 20.0179 9.97968 20.3779 9.97632C19.7949 9.57172 18.9046 8.81721 18.311 8.50203ZM11.5535 9.62138C11.0405 9.61348 10.5091 9.73482 10.0016 9.80128L7.52218 10.13C6.93537 10.2124 6.34586 10.3149 5.75501 10.3692C6.69213 10.775 7.65998 11.1223 8.59924 11.5255C8.81323 11.6084 9.07584 11.684 9.26897 11.8008C9.55821 12.5537 9.81221 13.3188 10.1195 14.0654C10.1782 13.8242 10.2699 13.585 10.3482 13.3485L10.7753 12.0688C11.0481 11.26 11.2921 10.4412 11.5733 9.63513C11.5669 9.63028 11.5618 9.62163 11.5535 9.62138ZM12.3539 9.62138C12.5677 10.0805 12.7006 10.5923 12.8597 11.071C13.1964 12.0835 13.5452 13.2015 13.9157 14.1964C14.0938 13.7213 14.5627 12.144 14.8065 11.8008C15.0024 11.6446 15.2326 11.5672 15.4692 11.4782C16.0657 11.2292 17.7669 10.4552 18.3641 10.3692C18.0004 10.2262 17.5752 10.2211 17.1852 10.1792L13.7835 9.78205C13.3083 9.72132 12.8328 9.65143 12.3539 9.62138ZM11.9867 10.119C11.8129 10.5513 11.7017 11.001 11.5569 11.4415L10.4205 14.9616C10.5485 15.7405 10.9097 16.904 10.9489 17.6302H12.0573C12.3899 17.629 12.7239 17.6219 13.0564 17.6302C13.2451 16.9867 13.3826 16.1701 13.5129 15.5101C13.6749 14.6899 13.6042 14.9047 13.3328 14.0692C13.2332 13.7627 12.0788 10.2152 11.9867 10.119ZM19.4282 10.4589C19.4087 10.6432 19.5203 11.059 19.5572 11.2573L19.8515 12.9055C19.9195 13.2726 20.022 13.656 20.0384 14.0285C20.9353 14.0215 21.8318 14.1537 22.7278 14.151C22.1815 12.8965 21.5184 11.6959 20.9345 10.4589C20.4333 10.4584 19.9287 10.4397 19.4282 10.4589ZM4.32301 10.4589C3.90331 10.5312 3.43183 10.5331 3.00446 10.5264C2.44166 11.7025 1.92384 12.8987 1.33791 14.0654H1.50726C2.32713 14.1028 3.15362 13.9791 3.97103 14.0285C4.1017 12.9389 4.31736 11.5388 4.53256 10.4589H4.32301ZM18.8902 10.6255C18.485 10.7681 17.3983 11.1504 17.1228 11.3675C17.3098 11.6497 18.1942 12.3824 18.5029 12.6448C18.8148 12.9058 19.1185 13.1749 19.4282 13.438C19.2563 12.5859 19.1431 11.7245 18.975 10.8718C18.964 10.8158 18.9712 10.6203 18.8902 10.6255ZM5.04917 10.6255C4.90156 11.5384 4.76753 12.5165 4.64332 13.438C4.97755 13.182 5.2641 12.8553 5.57916 12.5769C6.01096 12.1769 6.44754 11.7805 6.86496 11.3675C6.33194 11.11 5.60767 10.8402 5.04917 10.6255ZM17.1228 12.0643C17.1362 12.2887 17.1723 12.6988 17.2315 12.9112C16.8557 13.0469 15.0009 13.6262 14.868 13.7322C14.7055 13.8617 14.4482 14.3311 14.352 14.5222C14.6018 14.453 14.8441 14.3497 15.0998 14.3035C15.9177 13.9227 17.443 13.3778 18.311 13.1292C17.8499 12.8106 17.5207 12.3499 17.1228 12.0643ZM6.79125 12.2069C6.53698 12.4066 6.02387 12.8858 5.83699 13.1292C6.60255 13.2305 8.12372 14.0548 9.02789 14.3035C9.24282 14.4074 9.45727 14.4913 9.68841 14.5599C9.59345 14.3076 9.50623 14.0464 9.39238 13.801C8.80422 13.5576 7.41405 13.0277 6.79125 12.8614C6.79159 12.7845 6.81123 12.2378 6.79125 12.2069ZM5.42825 13.438C5.14574 13.7065 4.76988 14.0069 4.53256 14.3035C5.33363 15.4144 6.09637 16.558 6.85319 17.6947C7.14969 18.14 7.48244 18.5657 7.75755 19.0231C7.89831 18.7897 8.01001 18.5396 8.12783 18.2957C8.38902 17.7571 8.68377 17.2337 8.95089 16.6978C9.19453 16.2088 9.46978 15.5607 9.7802 15.1111C8.58082 14.7357 6.54815 13.9774 5.42825 13.438ZM18.6824 13.4846C17.3715 13.982 15.4874 14.5219 14.2804 15.1111C14.3501 15.4385 14.5652 15.7753 14.7153 16.0783L15.4425 17.5576C15.5779 17.8289 15.7343 18.1009 15.8551 18.3772C15.9662 18.6023 16.0629 18.8533 16.2011 19.0641C17.0571 17.9606 17.8545 16.5921 18.6506 15.4287C18.9344 15.0141 19.198 14.5893 19.5179 14.1964C19.4037 14.0767 18.8144 13.4739 18.6824 13.4846ZM20.1032 14.5599C20.1241 15.5674 20.0234 16.573 20.0384 17.5784C20.4217 17.1949 20.755 16.7578 21.1009 16.3446C21.5127 15.8103 22.0298 15.1945 22.4835 14.6817C21.6897 14.6542 20.8981 14.5746 20.1032 14.5599ZM3.68778 14.6214C2.9933 14.6199 2.17004 14.7202 1.50726 14.6817C1.69257 14.941 2.79041 16.2537 3.00446 16.3998C3.16626 16.7418 3.62826 17.2301 3.91656 17.5141C3.93721 16.5511 3.91623 15.5846 3.91656 14.6214H3.68778ZM19.5694 14.9616C19.3548 15.2927 16.8825 18.8903 16.8857 19.0231C17.5908 18.657 18.7376 18.3334 19.5179 18.0224C19.51 17.1691 19.5866 16.3006 19.5761 15.4244C19.5745 15.2952 19.5995 15.0792 19.5694 14.9616ZM4.47022 15.1111C4.44736 16.0621 4.47042 17.0187 4.47022 17.9705C4.8797 18.1894 5.51157 18.3507 5.95979 18.5047C6.32616 18.6305 6.68574 18.7827 7.05534 18.8993C6.76644 18.4553 4.78582 15.3774 4.47022 15.1111ZM14.2804 16.4774C14.2114 17.0002 14.0825 18.3279 14.1417 18.826C13.6272 19.028 12.5872 19.8475 12.0573 20.1762C12.313 20.299 12.5517 20.4647 12.7894 20.6149L13.7843 21.2423L13.989 21.3755C14.4609 20.9967 15.4262 19.9461 15.8551 19.4826C15.6741 19.1232 14.418 16.5869 14.2804 16.4774ZM9.68841 16.5446C9.2373 17.111 8.42439 18.8191 8.12783 19.4826C8.63798 19.8209 9.47328 20.8986 9.99412 21.3755C10.0902 21.3164 10.1869 21.2581 10.2803 21.1955C10.7682 20.8979 11.4883 20.3907 11.9867 20.1762C11.2985 19.7352 10.596 19.2928 9.92775 18.826C9.81154 18.3296 9.77993 17.4472 9.71463 16.9057C9.70139 16.7961 9.72196 16.6445 9.68841 16.5446ZM12.0573 20.7769C11.4788 21.0416 10.993 21.4597 10.4205 21.7276C10.9016 22.0774 11.4783 22.4625 11.9867 22.7791C12.3431 22.6116 13.2527 21.962 13.5661 21.7276C13.0579 21.4166 12.5521 21.1044 12.0573 20.7769Z"/>
</mask>
<path d="M2.05397 10.2277C1.93796 9.89885 1.77885 9.57906 1.63769 9.25871L0.826147 7.41491C0.355108 6.32531 0.483352 6.71099 0.587756 5.45219L0.876591 1.9171C0.927902 1.2844 1.02393 0.634498 1.00691 0C1.41817 0.143796 3.02686 1.38933 3.42598 1.67876L7.12864 4.36912C7.43214 4.59395 8.3283 5.30371 8.59924 5.42612H15.4692C15.7979 5.10004 16.228 4.82917 16.6108 4.55748L22.2544 0.485176C22.4921 0.315625 22.7249 0.136882 22.9869 0C22.9847 0.286017 23.0151 0.57026 23.0359 0.855293C23.1481 2.39302 23.302 3.92817 23.3995 5.46669C23.4801 6.73713 23.5829 6.4067 23.1099 7.56861C22.7478 8.45822 22.3702 9.34378 21.9923 10.2277C22.1944 10.7303 22.4488 11.217 22.6842 11.7067L23.4375 13.3107C23.6303 13.7117 23.8371 14.1098 24 14.5222C23.807 14.7108 23.6395 14.9225 23.4647 15.1256C22.8258 15.868 22.1726 16.6117 21.565 17.3756L20.9029 18.1634C20.7363 18.3622 20.568 18.6011 20.3579 18.7616C20.1858 18.893 18.0536 19.6232 17.7191 19.7457C16.6567 20.135 16.8314 19.9518 16.0792 20.7228C15.3828 21.4367 14.8919 22.095 14.0434 22.6458L12.5034 23.6722C12.3374 23.7851 12.171 23.9143 11.9867 24C11.4593 23.6878 10.9606 23.3188 10.4533 22.9791C9.70273 22.4764 9.53165 22.3905 8.92957 21.762L7.87026 20.6535C7.23947 19.9901 7.39145 20.1077 6.48245 19.7951C5.62475 19.5001 4.57365 19.153 3.74521 18.8113C3.45591 18.6921 0.967491 15.6484 0.584602 15.2131C0.389473 14.9912 0.218048 14.7448 0.0110761 14.5334L0 14.5222C0.107276 14.2352 0.25566 13.9569 0.388249 13.6792L1.68349 10.9516C1.80171 10.7094 1.91315 10.4594 2.05397 10.2277ZM22.1155 2.46502C21.8468 2.87292 21.6407 3.3176 21.4102 3.7446L19.606 7.04721C19.4534 7.32617 19.27 7.61043 19.1623 7.90688L19.9008 8.42891C20.0129 8.50906 20.123 8.60028 20.2394 8.67421C20.5684 8.91621 20.9102 9.14727 21.2336 9.39474C21.3909 9.04919 22.4566 6.72344 22.442 6.43302C22.4248 6.0917 22.3843 5.7492 22.3567 5.40832L22.2334 3.76035C22.2123 3.48275 22.2173 2.67242 22.1155 2.46502ZM1.86742 2.62065C1.85491 2.92562 1.82397 3.23029 1.80245 3.53483L1.65444 5.61249C1.59808 6.43731 1.48054 6.35349 1.81227 7.10894L2.58147 8.84534C2.6541 9.00856 2.72148 9.18336 2.81159 9.33886C3.12417 9.12262 3.42134 8.87272 3.74629 8.67421C4.08159 8.409 4.43525 8.15778 4.7834 7.90688C4.56773 7.34895 4.21299 6.80639 3.92752 6.27428L2.74717 4.11971C2.58591 3.82643 2.09882 2.78306 1.86742 2.62065ZM3.19081 2.79694C3.7516 3.86184 4.34628 4.91349 4.93236 5.96669C5.18367 6.41827 5.39221 6.88815 5.67337 7.32586C5.90632 7.08903 6.40968 6.71927 6.70248 6.54348C6.97027 6.3258 7.25453 6.10147 7.54928 5.91597C7.26475 5.63669 3.37756 2.86253 3.19081 2.79694ZM20.739 2.79694C19.275 3.79258 17.8854 4.88934 16.4461 5.91597C16.7125 6.13364 16.9968 6.35287 17.2864 6.54348C17.5991 6.80489 17.978 7.10751 18.3359 7.30975L18.3641 7.32586C18.6162 6.72425 20.7449 2.94012 20.739 2.79694ZM9.15956 6.38803C9.65646 6.96538 10.5238 7.65984 11.1179 8.16307C11.4231 8.42163 11.7256 8.71248 12.0573 8.94067C12.412 8.54951 13.1243 7.93936 13.5661 7.60246C13.9354 7.22873 14.5276 6.71759 14.9453 6.38803C14.3823 6.37876 13.818 6.38816 13.2549 6.38828L9.15956 6.38803ZM8.46293 6.47907C8.08015 6.71964 7.39616 7.23806 7.05534 7.53694C7.94834 7.84235 8.87806 8.05243 9.7802 8.33364C10.1359 8.43264 10.4907 8.53775 10.8521 8.6179C10.586 8.37266 8.54181 6.51043 8.46293 6.47907ZM15.5623 6.47907C15.3493 6.70925 15.0995 6.91385 14.8632 7.1235L13.9899 7.91391C13.7161 8.16152 13.4367 8.4034 13.1891 8.67421C13.5144 8.60638 13.827 8.50302 14.1417 8.40215C14.7703 8.19593 16.3111 7.61311 16.8857 7.53694C16.5787 7.19151 15.9512 6.77179 15.5623 6.47907ZM17.2864 7.98523C16.9925 8.02188 16.7103 8.13127 16.4311 8.22082L15.2268 8.61503C14.5537 8.83781 13.8726 9.03302 13.1891 9.22629C13.8013 9.33295 14.4341 9.34639 15.0453 9.45125C16.182 9.53917 17.5226 9.71217 18.6304 9.90414C18.4401 9.60339 17.5481 8.20296 17.3014 7.9861L17.2864 7.98523ZM6.70248 7.98523C6.34849 8.37284 5.60424 9.4472 5.34607 9.90414C5.64721 9.8543 8.91585 9.43096 9.02789 9.45125C9.46675 9.34583 10.3943 9.23196 10.8521 9.22629C10.3848 9.00682 9.85169 8.90028 9.35256 8.75498L6.70248 7.98523ZM5.67337 8.50203C5.2452 8.75953 4.07554 9.61702 3.6904 9.9538L3.68778 9.97632C4.00587 9.97595 4.32543 9.97222 4.64332 9.97632C4.74399 9.77159 5.67768 8.55573 5.67337 8.50203ZM18.311 8.50203C18.6247 8.99761 18.9834 9.47508 19.2822 9.97632C19.6393 9.93444 20.0179 9.97968 20.3779 9.97632C19.7949 9.57172 18.9046 8.81721 18.311 8.50203ZM11.5535 9.62138C11.0405 9.61348 10.5091 9.73482 10.0016 9.80128L7.52218 10.13C6.93537 10.2124 6.34586 10.3149 5.75501 10.3692C6.69213 10.775 7.65998 11.1223 8.59924 11.5255C8.81323 11.6084 9.07584 11.684 9.26897 11.8008C9.55821 12.5537 9.81221 13.3188 10.1195 14.0654C10.1782 13.8242 10.2699 13.585 10.3482 13.3485L10.7753 12.0688C11.0481 11.26 11.2921 10.4412 11.5733 9.63513C11.5669 9.63028 11.5618 9.62163 11.5535 9.62138ZM12.3539 9.62138C12.5677 10.0805 12.7006 10.5923 12.8597 11.071C13.1964 12.0835 13.5452 13.2015 13.9157 14.1964C14.0938 13.7213 14.5627 12.144 14.8065 11.8008C15.0024 11.6446 15.2326 11.5672 15.4692 11.4782C16.0657 11.2292 17.7669 10.4552 18.3641 10.3692C18.0004 10.2262 17.5752 10.2211 17.1852 10.1792L13.7835 9.78205C13.3083 9.72132 12.8328 9.65143 12.3539 9.62138ZM11.9867 10.119C11.8129 10.5513 11.7017 11.001 11.5569 11.4415L10.4205 14.9616C10.5485 15.7405 10.9097 16.904 10.9489 17.6302H12.0573C12.3899 17.629 12.7239 17.6219 13.0564 17.6302C13.2451 16.9867 13.3826 16.1701 13.5129 15.5101C13.6749 14.6899 13.6042 14.9047 13.3328 14.0692C13.2332 13.7627 12.0788 10.2152 11.9867 10.119ZM19.4282 10.4589C19.4087 10.6432 19.5203 11.059 19.5572 11.2573L19.8515 12.9055C19.9195 13.2726 20.022 13.656 20.0384 14.0285C20.9353 14.0215 21.8318 14.1537 22.7278 14.151C22.1815 12.8965 21.5184 11.6959 20.9345 10.4589C20.4333 10.4584 19.9287 10.4397 19.4282 10.4589ZM4.32301 10.4589C3.90331 10.5312 3.43183 10.5331 3.00446 10.5264C2.44166 11.7025 1.92384 12.8987 1.33791 14.0654H1.50726C2.32713 14.1028 3.15362 13.9791 3.97103 14.0285C4.1017 12.9389 4.31736 11.5388 4.53256 10.4589H4.32301ZM18.8902 10.6255C18.485 10.7681 17.3983 11.1504 17.1228 11.3675C17.3098 11.6497 18.1942 12.3824 18.5029 12.6448C18.8148 12.9058 19.1185 13.1749 19.4282 13.438C19.2563 12.5859 19.1431 11.7245 18.975 10.8718C18.964 10.8158 18.9712 10.6203 18.8902 10.6255ZM5.04917 10.6255C4.90156 11.5384 4.76753 12.5165 4.64332 13.438C4.97755 13.182 5.2641 12.8553 5.57916 12.5769C6.01096 12.1769 6.44754 11.7805 6.86496 11.3675C6.33194 11.11 5.60767 10.8402 5.04917 10.6255ZM17.1228 12.0643C17.1362 12.2887 17.1723 12.6988 17.2315 12.9112C16.8557 13.0469 15.0009 13.6262 14.868 13.7322C14.7055 13.8617 14.4482 14.3311 14.352 14.5222C14.6018 14.453 14.8441 14.3497 15.0998 14.3035C15.9177 13.9227 17.443 13.3778 18.311 13.1292C17.8499 12.8106 17.5207 12.3499 17.1228 12.0643ZM6.79125 12.2069C6.53698 12.4066 6.02387 12.8858 5.83699 13.1292C6.60255 13.2305 8.12372 14.0548 9.02789 14.3035C9.24282 14.4074 9.45727 14.4913 9.68841 14.5599C9.59345 14.3076 9.50623 14.0464 9.39238 13.801C8.80422 13.5576 7.41405 13.0277 6.79125 12.8614C6.79159 12.7845 6.81123 12.2378 6.79125 12.2069ZM5.42825 13.438C5.14574 13.7065 4.76988 14.0069 4.53256 14.3035C5.33363 15.4144 6.09637 16.558 6.85319 17.6947C7.14969 18.14 7.48244 18.5657 7.75755 19.0231C7.89831 18.7897 8.01001 18.5396 8.12783 18.2957C8.38902 17.7571 8.68377 17.2337 8.95089 16.6978C9.19453 16.2088 9.46978 15.5607 9.7802 15.1111C8.58082 14.7357 6.54815 13.9774 5.42825 13.438ZM18.6824 13.4846C17.3715 13.982 15.4874 14.5219 14.2804 15.1111C14.3501 15.4385 14.5652 15.7753 14.7153 16.0783L15.4425 17.5576C15.5779 17.8289 15.7343 18.1009 15.8551 18.3772C15.9662 18.6023 16.0629 18.8533 16.2011 19.0641C17.0571 17.9606 17.8545 16.5921 18.6506 15.4287C18.9344 15.0141 19.198 14.5893 19.5179 14.1964C19.4037 14.0767 18.8144 13.4739 18.6824 13.4846ZM20.1032 14.5599C20.1241 15.5674 20.0234 16.573 20.0384 17.5784C20.4217 17.1949 20.755 16.7578 21.1009 16.3446C21.5127 15.8103 22.0298 15.1945 22.4835 14.6817C21.6897 14.6542 20.8981 14.5746 20.1032 14.5599ZM3.68778 14.6214C2.9933 14.6199 2.17004 14.7202 1.50726 14.6817C1.69257 14.941 2.79041 16.2537 3.00446 16.3998C3.16626 16.7418 3.62826 17.2301 3.91656 17.5141C3.93721 16.5511 3.91623 15.5846 3.91656 14.6214H3.68778ZM19.5694 14.9616C19.3548 15.2927 16.8825 18.8903 16.8857 19.0231C17.5908 18.657 18.7376 18.3334 19.5179 18.0224C19.51 17.1691 19.5866 16.3006 19.5761 15.4244C19.5745 15.2952 19.5995 15.0792 19.5694 14.9616ZM4.47022 15.1111C4.44736 16.0621 4.47042 17.0187 4.47022 17.9705C4.8797 18.1894 5.51157 18.3507 5.95979 18.5047C6.32616 18.6305 6.68574 18.7827 7.05534 18.8993C6.76644 18.4553 4.78582 15.3774 4.47022 15.1111ZM14.2804 16.4774C14.2114 17.0002 14.0825 18.3279 14.1417 18.826C13.6272 19.028 12.5872 19.8475 12.0573 20.1762C12.313 20.299 12.5517 20.4647 12.7894 20.6149L13.7843 21.2423L13.989 21.3755C14.4609 20.9967 15.4262 19.9461 15.8551 19.4826C15.6741 19.1232 14.418 16.5869 14.2804 16.4774ZM9.68841 16.5446C9.2373 17.111 8.42439 18.8191 8.12783 19.4826C8.63798 19.8209 9.47328 20.8986 9.99412 21.3755C10.0902 21.3164 10.1869 21.2581 10.2803 21.1955C10.7682 20.8979 11.4883 20.3907 11.9867 20.1762C11.2985 19.7352 10.596 19.2928 9.92775 18.826C9.81154 18.3296 9.77993 17.4472 9.71463 16.9057C9.70139 16.7961 9.72196 16.6445 9.68841 16.5446ZM12.0573 20.7769C11.4788 21.0416 10.993 21.4597 10.4205 21.7276C10.9016 22.0774 11.4783 22.4625 11.9867 22.7791C12.3431 22.6116 13.2527 21.962 13.5661 21.7276C13.0579 21.4166 12.5521 21.1044 12.0573 20.7769Z" fill="black" stroke="black" stroke-width="2" mask="url(#path-1-inside-1_1_3)"/>
</svg>
